<?xml version="1.0" encoding="UTF-8" standalone="no"?>
<!-- Created with Inkscape (http://www.inkscape.org/) -->

<svg
   width="210mm"
   height="297mm"
   viewBox="0 0 210 297"
   version="1.1"
   id="svg5"
   inkscape:version="1.2.1 (9c6d41e410, 2022-07-14)"
   sodipodi:docname="lingomio.svg"
   xmlns:inkscape="http://www.inkscape.org/namespaces/inkscape"
   xmlns:sodipodi="http://sodipodi.sourceforge.net/DTD/sodipodi-0.dtd"
   xmlns:xlink="http://www.w3.org/1999/xlink"
   xmlns="http://www.w3.org/2000/svg"
   xmlns:svg="http://www.w3.org/2000/svg">
  <sodipodi:namedview
     id="namedview7"
     pagecolor="#ffffff"
     bordercolor="#000000"
     borderopacity="0.25"
     inkscape:showpageshadow="2"
     inkscape:pageopacity="0.0"
     inkscape:pagecheckerboard="0"
     inkscape:deskcolor="#d1d1d1"
     inkscape:document-units="mm"
     showgrid="false"
     inkscape:zoom="1.4912879"
     inkscape:cx="379.87299"
     inkscape:cy="734.26465"
     inkscape:window-width="1920"
     inkscape:window-height="1017"
     inkscape:window-x="-8"
     inkscape:window-y="-8"
     inkscape:window-maximized="1"
     inkscape:current-layer="layer1">
    <inkscape:grid
       type="xygrid"
       id="grid288" />
  </sodipodi:namedview>
  <defs
     id="defs2">
    <linearGradient
       inkscape:collect="always"
       id="linearGradient16925">
      <stop
         style="stop-color:#f5f5f5;stop-opacity:1;"
         offset="0"
         id="stop16921" />
      <stop
         style="stop-color:#fcfcfc;stop-opacity:1;"
         offset="1"
         id="stop16923" />
    </linearGradient>
    <clipPath
       clipPathUnits="userSpaceOnUse"
       id="clipPath4823">
      <rect
         style="opacity:1;fill:none;fill-opacity:1;stroke:#252626;stroke-width:0.264583;stroke-linejoin:bevel"
         id="rect4825"
         width="32.260033"
         height="32.260033"
         x="57.768959"
         y="92.866226" />
    </clipPath>
    <clipPath
       clipPathUnits="userSpaceOnUse"
       id="clipPath4827">
      <rect
         style="opacity:1;fill:none;fill-opacity:1;stroke:#252626;stroke-width:0.264583;stroke-linejoin:bevel"
         id="rect4829"
         width="32.260033"
         height="32.260033"
         x="57.768959"
         y="92.866226" />
    </clipPath>
    <linearGradient
       inkscape:collect="always"
       xlink:href="#linearGradient16925"
       id="linearGradient16927"
       x1="157.02599"
       y1="249.85678"
       x2="157.02599"
       y2="214.72954"
       gradientUnits="userSpaceOnUse"
       gradientTransform="translate(-86.312645,8.5309009)" />
    <linearGradient
       inkscape:collect="always"
       xlink:href="#linearGradient16925"
       id="linearGradient16945"
       gradientUnits="userSpaceOnUse"
       x1="157.02599"
       y1="249.85678"
       x2="157.02599"
       y2="214.72954"
       gradientTransform="translate(-24.748131,8.5309009)" />
  </defs>
  <g
     inkscape:label="Layer 1"
     inkscape:groupmode="layer"
     id="layer1">
    <rect
       style="fill:#4f8487;fill-opacity:1;stroke:none;stroke-width:0.264583;stroke-linejoin:bevel;stop-color:#000000"
       id="rect255"
       width="51.185482"
       height="51.185482"
       x="44.959999"
       y="145.98047"
       ry="0"
       rx="0"
       inkscape:export-filename="lp-180.png"
       inkscape:export-xdpi="89.322205"
       inkscape:export-ydpi="89.322205" />
    <rect
       style="opacity:1;fill:#00ffa2;stroke:#252626;stroke-width:0.264583;stroke-linejoin:bevel;fill-opacity:1"
       id="rect604"
       width="23.083614"
       height="23.083614"
       x="-28.751547"
       y="56.026802" />
    <path
       style="opacity:1;fill:#004466;fill-opacity:1;stroke:none;stroke-width:0.264583;stroke-linejoin:bevel"
       d="m 54.738237,97.385592 12.030777,-3.223637 3.439579,24.867465 21.053862,-5.64137 2.417727,9.02309 -30.076944,8.05909 z"
       id="path290"
       clip-path="url(#clipPath4827)"
       transform="translate(-15.054531,-60.719942)" />
    <path
       style="opacity:1;fill:#00ffa2;fill-opacity:1;stroke:none;stroke-width:0.264583;stroke-linejoin:bevel"
       d="m 72.812945,114.73577 c 0,0 -2.258035,-10.96768 2.856523,-19.826355 5.114558,-8.858673 20.370297,-2.735211 14.325825,7.734135 -6.044479,10.46933 -17.182348,12.09222 -17.182348,12.09222 z"
       id="path292"
       sodipodi:nodetypes="czzc"
       clip-path="url(#clipPath4823)"
       transform="translate(-15.054531,-60.719942)" />
    <rect
       style="opacity:1;fill:#004466;stroke:#252626;stroke-width:0.264583;stroke-linejoin:bevel;fill-opacity:1"
       id="rect606"
       width="23.083614"
       height="23.083614"
       x="-29.253365"
       y="80.114052" />
    <rect
       style="opacity:1;fill:#ff3355;stroke:#252626;stroke-width:0.264583;stroke-linejoin:bevel"
       id="rect608"
       width="23.083614"
       height="23.083614"
       x="-28.626093"
       y="106.58494" />
    <rect
       style="opacity:1;fill:#14182c;stroke:#252626;stroke-width:0.264583;stroke-linejoin:bevel;fill-opacity:1"
       id="rect2616"
       width="23.083614"
       height="23.083614"
       x="-25.99155"
       y="125.65401" />
    <rect
       style="opacity:1;fill:none;fill-opacity:1;stroke:#252626;stroke-width:0.264583;stroke-linejoin:bevel"
       id="rect3965"
       width="54.823578"
       height="54.823578"
       x="31.215668"
       y="19.77046" />
    <g
       id="g4977"
       transform="translate(-19.925108,-59.752406)">
      <g
         id="g4972"
         transform="translate(0.8967676,-0.57374553)">
        <path
           style="opacity:1;fill:#004466;fill-opacity:1;stroke:none;stroke-width:0.264583;stroke-linejoin:bevel"
           d="m 147.14853,91.53937 h 9.1649 c -1.02289,7.955128 -15.97151,23.8653 -3.06848,23.8653 7.29487,0 16.61117,0.89 20.54166,-5.33181 v 14.28131 c -7.38699,-14.80438 -18.98753,-0.62425 -26.63808,0 z"
           id="path3967"
           sodipodi:nodetypes="ccscccc" />
        <path
           style="opacity:1;fill:#00ffa2;fill-opacity:1;stroke:none;stroke-width:0.264583;stroke-linejoin:bevel"
           d="m 152.20985,110.56903 c 1e-4,1e-4 4.30703,-5.96784 8.00313,-16.130995 3.6961,-10.16316 19.52895,2.519866 11.3394,10.709445 -8.18956,8.18955 -19.34253,5.42155 -19.34253,5.42155 z"
           id="path3969"
           sodipodi:nodetypes="czzc" />
      </g>
    </g>
    <rect
       style="opacity:1;fill:none;fill-opacity:1;stroke:#252626;stroke-width:0.264583;stroke-linejoin:bevel"
       id="rect3971"
       width="52.565399"
       height="52.565399"
       x="115.19959"
       y="20.899549"
       rx="0"
       ry="0" />
    <g
       id="g4983"
       transform="translate(-29.000036,-52.131852)"
       inkscape:export-filename="a-128.png"
       inkscape:export-xdpi="61.850571"
       inkscape:export-ydpi="61.850571">
      <path
         style="opacity:1;fill:#004466;fill-opacity:1;stroke:none;stroke-width:0.264583;stroke-linejoin:bevel"
         d="m 71.394438,150.79743 h 11.93265 l -3.99515,23.8653 h 21.894132 v 8.9495 H 71.394438 Z"
         id="path4833"
         sodipodi:nodetypes="ccccccc" />
      <path
         style="opacity:1;fill:#00ffa2;fill-opacity:1;stroke:none;stroke-width:0.264583;stroke-linejoin:bevel"
         d="m 83.818668,171.33515 c 0,0 0.62996,-10.70942 7.55958,-17.63905 6.92964,-6.92963 19.528952,2.51987 11.339402,10.70944 -8.189562,8.18955 -18.898982,6.92961 -18.898982,6.92961 z"
         id="path4835"
         sodipodi:nodetypes="czzc" />
    </g>
    <path
       style="opacity:1;fill:#00ffa2;fill-opacity:1;stroke:none;stroke-width:0.264583;stroke-linejoin:bevel"
       d="m 120.81609,97.193353 h 11.93265 l -3.99515,23.865297 h 21.89413 v 8.9495 h -29.83163 z"
       id="path4966"
       sodipodi:nodetypes="ccccccc" />
    <path
       style="opacity:1;fill:#004466;fill-opacity:1;stroke:none;stroke-width:0.264583;stroke-linejoin:bevel"
       d="m 133.24032,117.73107 c 0,0 0.62996,-10.70942 7.55958,-17.63905 6.92964,-6.929627 19.52895,2.51987 11.3394,10.70944 -8.18956,8.18955 -18.89898,6.92961 -18.89898,6.92961 z"
       id="path4968"
       sodipodi:nodetypes="czzc" />
    <rect
       style="opacity:1;fill:none;fill-opacity:1;stroke:none;stroke-width:0.264583;stroke-linejoin:bevel"
       id="rect4979"
       width="52.565399"
       height="52.565399"
       x="46.157345"
       y="148.50659"
       rx="0"
       ry="0" />
    <path
       style="fill:#17deaa;fill-opacity:1;stroke:none;stroke-width:0.264583;stroke-linejoin:bevel"
       d="m 54.083527,155.1658 h 11.93265 l -3.99515,23.8653 h 21.894132 v 8.9495 H 54.083527 Z"
       id="path187"
       sodipodi:nodetypes="ccccccc" />
    <path
       style="fill:#23fee1;fill-opacity:1;stroke:none;stroke-width:0.264583;stroke-linejoin:bevel"
       d="m 66.507757,175.70352 c 0,0 0.62996,-10.70942 7.55958,-17.63905 6.92964,-6.92963 19.528952,2.51987 11.339402,10.70944 -8.189562,8.18955 -18.898982,6.92961 -18.898982,6.92961 z"
       id="path189"
       sodipodi:nodetypes="czzc" />
    <rect
       style="opacity:1;fill:none;fill-opacity:1;stroke:none;stroke-width:0.264583;stroke-linejoin:bevel"
       id="rect197"
       width="52.565399"
       height="52.565399"
       x="44.270042"
       y="145.29051"
       rx="0"
       ry="0" />
    <rect
       style="fill:#45ebfe;fill-opacity:1;stroke:none;stroke-width:0.264583;stroke-linejoin:bevel;stop-color:#000000"
       id="rect12058"
       width="51.185482"
       height="51.185482"
       x="105.10516"
       y="145.98047"
       ry="4.7903223"
       rx="4.7903223" />
    <path
       style="fill:#4f8487;fill-opacity:1;stroke:none;stroke-width:0.264583;stroke-linejoin:bevel"
       d="m 113.69952,155.1658 h 11.93265 l -3.99515,23.8653 h 21.89413 v 8.9495 h -29.83163 z"
       id="path12060"
       sodipodi:nodetypes="ccccccc" />
    <path
       style="fill:#2bbfa8;fill-opacity:1;stroke:none;stroke-width:0.264583;stroke-linejoin:bevel"
       d="m 126.12375,175.70352 c 0,0 0.62996,-10.70942 7.55958,-17.63905 6.92964,-6.92963 19.52895,2.51987 11.3394,10.70944 -8.18956,8.18955 -18.89898,6.92961 -18.89898,6.92961 z"
       id="path12062"
       sodipodi:nodetypes="czzc" />
    <rect
       style="opacity:1;fill:none;fill-opacity:1;stroke:none;stroke-width:0.264583;stroke-linejoin:bevel"
       id="rect12064"
       width="52.565399"
       height="52.565399"
       x="104.4152"
       y="145.29051"
       rx="0"
       ry="0" />
    <rect
       style="fill:url(#linearGradient16927);fill-opacity:1;stroke:none;stroke-width:0.264583;stroke-linejoin:bevel;stop-color:#000000"
       id="rect14970"
       width="51.185482"
       height="51.185482"
       x="45.87336"
       y="209.71132"
       ry="4.7903223"
       rx="4.7903223" />
    <rect
       style="opacity:1;fill:none;fill-opacity:1;stroke:none;stroke-width:0.264583;stroke-linejoin:bevel"
       id="rect14976"
       width="52.565399"
       height="52.565399"
       x="45.183403"
       y="209.02136"
       rx="0"
       ry="0" />
    <path
       style="fill:#000000;fill-opacity:0.2;stroke:none;stroke-width:0.264583;stroke-linejoin:bevel"
       d="m 54.793055,219.21029 h 11.93265 l -3.99515,23.8653 h 21.89413 v 8.9495 h -29.83163 z"
       id="path16929"
       sodipodi:nodetypes="ccccccc" />
    <path
       style="fill:#000000;fill-opacity:0.2;stroke:none;stroke-width:0.264583;stroke-linejoin:bevel"
       d="m 67.217285,239.74801 c 0,0 0.62996,-10.70942 7.55958,-17.63905 6.92964,-6.92963 19.52895,2.51987 11.3394,10.70944 -8.18956,8.18955 -18.89898,6.92961 -18.89898,6.92961 z"
       id="path16931"
       sodipodi:nodetypes="czzc" />
    <path
       style="fill:#004466;fill-opacity:1;stroke:none;stroke-width:0.264583;stroke-linejoin:bevel"
       d="m 54.467725,218.89665 h 11.93265 l -3.99515,23.8653 h 21.89413 v 8.9495 h -29.83163 z"
       id="path14972"
       sodipodi:nodetypes="ccccccc" />
    <path
       style="fill:#00ffa2;fill-opacity:1;stroke:none;stroke-width:0.264583;stroke-linejoin:bevel"
       d="m 66.891955,239.43437 c 0,0 0.62996,-10.70942 7.55958,-17.63905 6.92964,-6.92963 19.52895,2.51987 11.3394,10.70944 -8.18956,8.18955 -18.89898,6.92961 -18.89898,6.92961 z"
       id="path14974"
       sodipodi:nodetypes="czzc" />
    <rect
       style="fill:url(#linearGradient16945);fill-opacity:1;stroke:none;stroke-width:0.264583;stroke-linejoin:bevel;stop-color:#000000"
       id="rect16933"
       width="51.185482"
       height="51.185482"
       x="107.43787"
       y="209.71132"
       ry="0"
       rx="0"
       inkscape:export-filename="lm-180.png"
       inkscape:export-xdpi="89.322205"
       inkscape:export-ydpi="89.322205" />
    <rect
       style="opacity:1;fill:none;fill-opacity:1;stroke:none;stroke-width:0.264583;stroke-linejoin:bevel"
       id="rect16935"
       width="52.565399"
       height="52.565399"
       x="106.74792"
       y="209.02136"
       rx="0"
       ry="0" />
    <path
       style="fill:#000000;fill-opacity:0.2;stroke:none;stroke-width:0.264583;stroke-linejoin:bevel"
       d="m 116.88674,219.21029 h 11.93265 l -3.99515,23.8653 h 21.89413 v 8.9495 h -29.83163 z"
       id="path16937"
       sodipodi:nodetypes="ccccccc" />
    <path
       style="fill:#000000;fill-opacity:0.2;stroke:none;stroke-width:0.264583;stroke-linejoin:bevel"
       d="m 129.31097,239.74801 c 0,0 0.62996,-10.70942 7.55958,-17.63905 6.92964,-6.92963 19.52895,2.51987 11.3394,10.70944 -8.18956,8.18955 -18.89898,6.92961 -18.89898,6.92961 z"
       id="path16939"
       sodipodi:nodetypes="czzc" />
    <path
       style="fill:#00ffa2;fill-opacity:1;stroke:none;stroke-width:0.264583;stroke-linejoin:bevel"
       d="m 116.56141,218.89665 h 11.93265 l -3.99515,23.8653 h 21.89413 v 8.9495 h -29.83163 z"
       id="path16941"
       sodipodi:nodetypes="ccccccc" />
    <path
       style="fill:#004466;fill-opacity:0.996078;stroke:none;stroke-width:0.264583;stroke-linejoin:bevel"
       d="m 128.98564,239.43437 c 0,0 0.62996,-10.70942 7.55958,-17.63905 6.92964,-6.92963 19.52895,2.51987 11.3394,10.70944 -8.18956,8.18955 -18.89898,6.92961 -18.89898,6.92961 z"
       id="path16943"
       sodipodi:nodetypes="czzc" />
    <text
       xml:space="preserve"
       style="font-size:3.175px;fill:#00ffa2;fill-opacity:1;stroke:none;stroke-width:0.264583;stroke-linejoin:bevel;stop-color:#000000"
       x="13.04726"
       y="112.40717"
       id="text17070"><tspan
         sodipodi:role="line"
         id="tspan17068"
         style="fill:#000000;stroke-width:0.264583"
         x="13.04726"
         y="112.40717">Main copies</tspan></text>
    <text
       xml:space="preserve"
       style="font-size:3.175px;fill:#00ffa2;fill-opacity:1;stroke:none;stroke-width:0.264583;stroke-linejoin:bevel;stop-color:#000000"
       x="5.1436315"
       y="171.2453"
       id="text17126"><tspan
         sodipodi:role="line"
         style="fill:#000000;stroke-width:0.264583"
         x="5.1436315"
         y="171.2453"
         id="tspan17178">Flat colour variations</tspan></text>
    <text
       xml:space="preserve"
       style="font-size:3.175px;fill:#000000;fill-opacity:1;stroke:none;stroke-width:0.264583;stroke-linejoin:bevel;stop-color:#000000"
       x="58.548382"
       y="203.5"
       id="text17184"><tspan
         sodipodi:role="line"
         id="tspan17182"
         style="stroke-width:0.264583"
         x="58.548382"
         y="203.5">Langpad (offline)</tspan></text>
    <text
       xml:space="preserve"
       style="font-size:3.175px;fill:#000000;fill-opacity:1;stroke:none;stroke-width:0.264583;stroke-linejoin:bevel;stop-color:#000000"
       x="118.16129"
       y="266.83871"
       id="text17188"><tspan
         sodipodi:role="line"
         id="tspan17186"
         style="stroke-width:0.264583"
         x="118.16129"
         y="266.83871">Lingomio (online)</tspan></text>
    <text
       xml:space="preserve"
       style="font-size:3.175px;fill:#00ffa2;fill-opacity:1;stroke:none;stroke-width:0.264583;stroke-linejoin:bevel;stop-color:#000000"
       x="10.99847"
       y="233.87433"
       id="text20096"><tspan
         sodipodi:role="line"
         style="fill:#000000;stroke-width:0.264583"
         x="10.99847"
         y="233.87433"
         id="tspan20094">Depth variations</tspan></text>
  </g>
</svg>
